<mxfile host="app.diagrams.net" modified="2023-10-11T00:35:03.280Z" agent="Mozilla/5.0 (Windows NT 10.0; Win64; x64) AppleWebKit/537.36 (KHTML, like Gecko) Chrome/117.0.0.0 Safari/537.36" etag="onSG5YhKQ8adVQOhIw4P" version="22.0.4" type="github">
  <diagram name="PÃ¡gina-1" id="NzEY5Oon2eNFP-K9tF7l">
    <mxGraphModel dx="1562" dy="879" grid="1" gridSize="10" guides="1" tooltips="1" connect="1" arrows="1" fold="1" page="1" pageScale="1" pageWidth="827" pageHeight="1169" math="0" shadow="0">
      <root>
        <mxCell id="0" />
        <mxCell id="1" parent="0" />
      </root>
    </mxGraphModel>
  </diagram>
</mxfile>
